<svg width="140" height="80" viewBox="0 0 140 80" fill="none" xmlns="http://www.w3.org/2000/svg">
<path d="M90.0742 20.4796C87.468 17.7924 84.3478 15.6569 80.8994 14.2002C77.451 12.7434 73.7448 11.9952 70.0014 12C54.5385 12 42 24.5356 42 40.001C41.9906 46.0759 43.9659 51.9876 47.6256 56.8365C52.7348 63.6168 60.8552 68 69.9986 68C85.4622 68 98 55.4644 98 39.999C98.0098 32.7069 95.1649 25.7006 90.0742 20.4796Z" fill="#FBA51D"/>
<path d="M78.25 34H75.25V32.125C75.25 31.2977 74.5773 30.625 73.75 30.625H66.25C65.4227 30.625 64.75 31.2977 64.75 32.125V34H61.75C61.3352 34 61 34.3352 61 34.75V35.5C61 35.6031 61.0844 35.6875 61.1875 35.6875H62.6031L63.182 47.9453C63.2195 48.7445 63.8805 49.375 64.6797 49.375H75.3203C76.1219 49.375 76.7805 48.7469 76.818 47.9453L77.3969 35.6875H78.8125C78.9156 35.6875 79 35.6031 79 35.5V34.75C79 34.3352 78.6648 34 78.25 34ZM73.5625 34H66.4375V32.3125H73.5625V34Z" fill="white"/>
<path opacity="0.3" d="M22.8758 21.0748C23.4118 20.6033 24.255 20.8293 24.4835 21.5056L28.4929 33.3709C28.7485 34.1274 28.058 34.8636 27.2867 34.6569L13.8724 31.0626C13.1011 30.8559 12.8712 29.8731 13.4709 29.3458L22.8758 21.0748Z" fill="#FBA51D"/>
<path d="M61.9082 4.29955C62.1033 3.61284 62.9343 3.34576 63.4929 3.79028L66.2723 6.0022C66.8972 6.49945 66.7158 7.49239 65.9556 7.73671L62.2057 8.94182C61.4455 9.18614 60.7197 8.48474 60.9378 7.71658L61.9082 4.29955Z" fill="#FBA51D"/>
<path opacity="0.2" d="M36.3471 58.2315C36.7809 57.6646 37.652 57.7218 38.008 58.3405L40.3648 62.4368C40.763 63.1289 40.2293 63.9856 39.4325 63.9333L34.2036 63.5901C33.4068 63.5377 32.9897 62.6186 33.475 61.9845L36.3471 58.2315Z" fill="#FBA51D"/>
<path opacity="0.5" d="M102.469 14.9135C103.11 14.5995 103.864 15.039 103.907 15.7516L104.045 18.0447C104.093 18.8418 103.233 19.3707 102.543 18.9687L100.342 17.6861C99.6522 17.284 99.6886 16.2753 100.406 15.9241L102.469 14.9135Z" fill="#FBA51D"/>
<path opacity="0.2" d="M120.362 36.8089C120.655 36.158 121.517 36.0153 122.004 36.5367L127.143 42.031C127.688 42.6143 127.364 43.57 126.576 43.7006L118.347 45.0648C117.559 45.1953 116.943 44.3954 117.271 43.6674L120.362 36.8089Z" fill="#FBA51D"/>
<path opacity="0.8" d="M104.277 52.0062C104.361 51.2972 105.139 50.9012 105.761 51.2512L109.474 53.3392C110.17 53.7306 110.149 54.7398 109.437 55.102L105.228 57.2446C104.516 57.6069 103.688 57.03 103.781 56.2369L104.277 52.0062Z" fill="#FBA51D"/>
</svg>
