<svg width="22" height="16" viewBox="0 0 22 16" fill="none" xmlns="http://www.w3.org/2000/svg">
<path d="M11.0001 2.5C14.7901 2.5 18.1701 4.63 19.8201 8C18.1701 11.37 14.7901 13.5 11.0001 13.5C7.21006 13.5 3.83006 11.37 2.18006 8C3.83006 4.63 7.21006 2.5 11.0001 2.5ZM11.0001 0.5C6.00006 0.5 1.73006 3.61 6.10352e-05 8C1.73006 12.39 6.00006 15.5 11.0001 15.5C16.0001 15.5 20.2701 12.39 22.0001 8C20.2701 3.61 16.0001 0.5 11.0001 0.5ZM11.0001 5.5C12.3801 5.5 13.5001 6.62 13.5001 8C13.5001 9.38 12.3801 10.5 11.0001 10.5C9.62006 10.5 8.50006 9.38 8.50006 8C8.50006 6.62 9.62006 5.5 11.0001 5.5ZM11.0001 3.5C8.52006 3.5 6.50006 5.52 6.50006 8C6.50006 10.48 8.52006 12.5 11.0001 12.5C13.4801 12.5 15.5001 10.48 15.5001 8C15.5001 5.52 13.4801 3.5 11.0001 3.5Z" fill="#454743"/>
</svg>
