<svg width="22" height="20" viewBox="0 0 22 20" fill="none" xmlns="http://www.w3.org/2000/svg">
<path d="M11.0001 3.97505C14.7901 3.97505 18.1701 6.10505 19.8201 9.47505C19.2301 10.695 18.4001 11.745 17.4101 12.595L18.8201 14.005C20.2101 12.775 21.3101 11.235 22.0001 9.47505C20.2701 5.08505 16.0001 1.97505 11.0001 1.97505C9.73006 1.97505 8.51006 2.17505 7.36006 2.54505L9.01006 4.19505C9.66006 4.06505 10.3201 3.97505 11.0001 3.97505ZM9.93006 5.11505L12.0001 7.18505C12.5701 7.43505 13.0301 7.89505 13.2801 8.46505L15.3501 10.535C15.4301 10.195 15.4901 9.83505 15.4901 9.46505C15.5001 6.98505 13.4801 4.97505 11.0001 4.97505C10.6301 4.97505 10.2801 5.02505 9.93006 5.11505ZM1.01006 1.84505L3.69006 4.52505C2.06006 5.80505 0.770061 7.50505 6.10352e-05 9.47505C1.73006 13.865 6.00006 16.975 11.0001 16.975C12.5201 16.975 13.9801 16.685 15.3201 16.155L18.7401 19.575L20.1501 18.165L2.42006 0.425049L1.01006 1.84505ZM8.51006 9.34505L11.1201 11.955C11.0801 11.965 11.0401 11.975 11.0001 11.975C9.62006 11.975 8.50006 10.855 8.50006 9.47505C8.50006 9.42505 8.51006 9.39505 8.51006 9.34505ZM5.11006 5.94505L6.86006 7.69505C6.63006 8.24505 6.50006 8.84505 6.50006 9.47505C6.50006 11.955 8.52006 13.975 11.0001 13.975C11.6301 13.975 12.2301 13.845 12.7701 13.615L13.7501 14.595C12.8701 14.835 11.9501 14.975 11.0001 14.975C7.21006 14.975 3.83006 12.845 2.18006 9.47505C2.88006 8.04505 3.90006 6.86505 5.11006 5.94505Z" fill="#454743"/>
</svg>
